<svg xmlns="http://www.w3.org/2000/svg" viewBox="0 0 200 200" fill="none">
  <!-- Background circle -->
  <circle cx="100" cy="100" r="95" fill="#2E7D32" opacity="0.1"/>
  <circle cx="100" cy="100" r="95" stroke="#2E7D32" stroke-width="3" fill="none"/>

  <!-- House shape -->
  <path d="M100 35 L155 80 L155 145 L45 145 L45 80 Z" fill="#2E7D32" opacity="0.15" stroke="#2E7D32" stroke-width="2.5"/>

  <!-- Roof -->
  <path d="M100 35 L160 83 L155 83 L100 40 L45 83 L40 83 Z" fill="#2E7D32"/>

  <!-- Door -->
  <rect x="88" y="105" width="24" height="40" rx="3" fill="#2E7D32"/>
  <circle cx="107" cy="127" r="2" fill="white"/>

  <!-- Windows -->
  <rect x="55" y="90" width="22" height="20" rx="2" fill="#2E7D32" opacity="0.7"/>
  <rect x="123" y="90" width="22" height="20" rx="2" fill="#2E7D32" opacity="0.7"/>
  <line x1="66" y1="90" x2="66" y2="110" stroke="white" stroke-width="1.5"/>
  <line x1="55" y1="100" x2="77" y2="100" stroke="white" stroke-width="1.5"/>
  <line x1="134" y1="90" x2="134" y2="110" stroke="white" stroke-width="1.5"/>
  <line x1="123" y1="100" x2="145" y2="100" stroke="white" stroke-width="1.5"/>

  <!-- Trees -->
  <circle cx="30" cy="130" r="12" fill="#4CAF50" opacity="0.6"/>
  <rect x="28" y="138" width="4" height="12" rx="1" fill="#795548"/>
  <circle cx="170" cy="130" r="12" fill="#4CAF50" opacity="0.6"/>
  <rect x="168" y="138" width="4" height="12" rx="1" fill="#795548"/>

  <!-- Text -->
  <text x="100" y="172" text-anchor="middle" font-family="Inter, Arial, sans-serif" font-size="14" font-weight="700" fill="#2E7D32">O'HARA VILLAGE</text>
  <text x="100" y="188" text-anchor="middle" font-family="Inter, Arial, sans-serif" font-size="10" font-weight="500" fill="#795548">HOA</text>
</svg>
